# xmcd
#
# Track frame offsets:
#	150
#	18602
#	38398
#	49169
#	63004
#	82950
#	98598
#	123178
#	138321
#	152489
#	169282
#	193280
#	207305
#	228708
#	251766
#
# Disc length: 3555 seconds
#
# Revision: 1
# Processed by: cddbd v1.5.2PL0 Copyright (c) Steve Scherf et al.
# Submitted via: audiograbber 1.83.01
#
DISCID=c30de10f
DTITLE=Sam Brown - B Sides - No.1
DYEAR=1990
DGENRE=Blues
TTITLE0=Soldiers
TTITLE1=Pitiful World
TTITLE2=Walking After Midnight
TTITLE3=Kids
TTITLE4=Art of Persuasion
TTITLE5=Long Way Down
TTITLE6=Window People
TTITLE7=Dolly Mixture
TTITLE8=Is it Mustard or Mango
TTITLE9=Here You Are Again
TTITLE10=Trick fo the Imagination
TTITLE11=The Tune with No Name
TTITLE12=No Man is an Island
TTITLE13=Feel Like Making Love
TTITLE14=This Feeling (Remix)
EXTD=
EXTT0=
EXTT1=
EXTT2=
EXTT3=
EXTT4=
EXTT5=
EXTT6=
EXTT7=
EXTT8=
EXTT9=
EXTT10=
EXTT11=
EXTT12=
EXTT13=
EXTT14=
PLAYORDER=
